:FULLY-SPECIFIED
:FORCE-ALL-JOINTS-BE-3DOF
:DEGREES
272
root 8.3321 15.9173 -25.0445 21.0658 72.3793 20.1776
lfemur -25.7481 9.06452 -21.9831
ltibia 47.3794 -0 0
lfoot -14.3954 -20.9126 -0.132497
ltoes 42.9888 -0 0
rfemur -42.5623 1.1323 11.531
rtibia 62.8658 -0 0
rfoot 3.13776 -8.3238 1.79644
rtoes 17.3377 -0 0
lowerback 5.55416 -5.18164 -2.49969
upperback 2.1531 -6.98843 -1.23195
thorax -0.71648 -3.44695 0.56197
lowerneck -5.14463 -11.0605 -4.78358
upperneck 1.80152 -14.6216 4.92531
head 2.26866 -7.23734 1.80098
lclavicle 1.24253e-013 1.47101e-014 0
lhumerus -46.485 -37.2056 110.083
lradius 60.5731 -0 0
lwrist 19.7 0 0
lhand 16.0038 15.7836 0.0652789
lfingers 7.12502 -0 0
lthumb 40.7702 40.5608 -0.00548256
rclavicle 1.24253e-013 1.47101e-014 0
rhumerus -56.8898 -2.27575 -93.2787
rradius 53.7575 -0 0
rwrist 24.9679 0 0
rhand -29.2605 3.33829 -0.189694
rfingers 7.12502 -0 0
rthumb -2.58258 -26.9018 -0.305079
273
root 8.39852 15.9114 -25.0158 22.5373 73.146 22.1606
lfemur -24.9463 8.45441 -22.1842
ltibia 47.3068 -0 0
lfoot -14.3172 -21.7498 -0.112304
ltoes 43.1137 -0 0
rfemur -44.0621 0.815512 12.0405
rtibia 63.6047 -0 0
rfoot 4.07228 -6.76278 1.55886
rtoes 15.8849 -0 0
lowerback 5.80167 -5.25792 -2.69009
upperback 2.3207 -7.10083 -1.47947
thorax -0.686608 -3.50502 0.431668
lowerneck -4.95725 -11.1969 -4.89573
upperneck 1.74373 -14.8133 5.13534
head 2.2508 -7.33102 1.88373
lclavicle 1.24253e-013 1.47101e-014 0
lhumerus -46.179 -37.4391 109.524
lradius 60.4673 -0 0
lwrist 19.8252 0 0
lhand 16.5102 15.9308 0.0561272
lfingers 7.12502 -0 0
lthumb 41.2488 40.5811 -0.00541708
rclavicle 1.24253e-013 1.47101e-014 0
rhumerus -57.4357 -1.41356 -94.3107
rradius 54.1711 -0 0
rwrist 24.3146 0 0
rhand -29.5763 3.78187 -0.133954
rfingers 7.12502 -0 0
rthumb -2.88906 -26.4499 -0.246788
274
root 8.46494 15.9055 -24.987 24.0367 73.8271 24.1437
lfemur -24.1822 7.90208 -22.3779
ltibia 47.245 -0 0
lfoot -14.2535 -22.5362 -0.0921985
ltoes 43.2503 -0 0
rfemur -45.4918 0.492672 12.5606
rtibia 64.2954 -0 0
rfoot 4.95575 -5.26084 1.31233
rtoes 14.4611 -0 0
lowerback 6.04132 -5.32535 -2.87745
upperback 2.48285 -7.20158 -1.71628
thorax -0.657641 -3.55745 0.309665
lowerneck -4.78131 -11.3243 -4.99735
upperneck 1.67975 -14.9928 5.34212
head 2.23134 -7.41866 1.96395
lclavicle 1.24253e-013 1.47101e-014 0
lhumerus -45.8854 -37.6684 108.985
lradius 60.365 -0 0
lwrist 19.9411 0 0
lhand 16.9836 16.0608 0.0463987
lfingers 7.12502 -0 0
lthumb 41.6963 40.593 -0.00539095
rclavicle 1.24253e-013 1.47101e-014 0
rhumerus -57.9404 -0.507127 -95.2736
rradius 54.5908 -0 0
rwrist 23.6588 0 0
rhand -29.8064 4.1917 -0.0835947
rfingers 7.12502 -0 0
rthumb -3.11311 -26.0254 -0.190932
275
root 8.53137 15.8995 -24.9582 25.5273 74.4203 26.0872
lfemur -23.4627 7.4134 -22.5623
ltibia 47.1964 -0 0
lfoot -14.205 -23.2657 -0.0726831
ltoes 43.3995 -0 0
rfemur -46.8415 0.163626 13.0905
rtibia 64.9325 -0 0
rfoot 5.78411 -3.82815 1.06286
rtoes 13.071 -0 0
lowerback 6.27194 -5.38321 -3.06098
upperback 2.63856 -7.28965 -1.94047
thorax -0.629837 -3.60368 0.197315
lowerneck -4.61802 -11.4422 -5.08772
upperneck 1.6093 -15.1595 5.54493
head 2.21017 -7.49994 2.04128
lclavicle 1.24253e-013 1.47101e-014 0
lhumerus -45.6064 -37.8926 108.468
lradius 60.2672 -0 0
lwrist 20.0462 0 0
lhand 17.4194 16.1715 0.0365198
lfingers 7.12502 -0 0
lthumb 42.1083 40.5954 -0.00528813
rclavicle 1.24253e-013 1.47101e-014 0
rhumerus -58.3989 0.446189 -96.1608
rradius 55.0136 -0 0
rwrist 23.0038 0 0
rhand -29.9429 4.56596 -0.0406099
rfingers 7.12502 -0 0
rthumb -3.24702 -25.6297 -0.139224
276
root 8.59779 15.8936 -24.9294 26.9658 74.9239 27.9443
lfemur -22.7949 6.99416 -22.7351
ltibia 47.1636 -0 0
lfoot -14.1726 -23.932 -0.0542491
ltoes 43.5617 -0 0
rfemur -48.1013 -0.17203 13.6289
rtibia 65.5103 -0 0
rfoot 6.55359 -2.47472 0.816801
rtoes 11.7188 -0 0
lowerback 6.49236 -5.43076 -3.23987
upperback 2.78678 -7.36406 -2.15015
thorax -0.603454 -3.64317 0.0959761
lowerneck -4.46858 -11.5505 -5.1661
upperneck 1.53208 -15.3127 5.74307
head 2.18718 -7.57456 2.1154
lclavicle 1.24253e-013 1.47101e-014 0
lhumerus -45.3439 -38.1108 107.978
lradius 60.1747 -0 0
lwrist 20.1387 0 0
lhand 17.8131 16.2605 0.0269331
lfingers 7.12502 -0 0
lthumb 42.4807 40.5872 -0.00499265
rclavicle 1.24253e-013 1.47101e-014 0
rhumerus -58.806 1.44906 -96.9656
rradius 55.4364 -0 0
rwrist 22.3527 0 0
rhand -29.9777 4.90282 -0.0069403
rfingers 7.12502 -0 0
rthumb -3.28312 -25.264 -0.093362
277
root 8.66421 15.8876 -24.9006 28.3034 75.3369 29.6632
lfemur -22.1858 6.65011 -22.8944
ltibia 47.1491 -0 0
lfoot -14.1569 -24.529 -0.037363
ltoes 43.7377 -0 0
rfemur -49.2613 -0.514957 14.1747
rtibia 66.0234 -0 0
rfoot 7.26074 -1.21041 0.580743
rtoes 10.4092 -0 0
lowerback 6.70143 -5.46729 -3.41333
upperback 2.9265 -7.42381 -2.34338
thorax -0.578751 -3.67535 0.00700441
lowerneck -4.33418 -11.6487 -5.23176
upperneck 1.44783 -15.4517 5.93579
head 2.16227 -7.64222 2.18595
lclavicle 1.24253e-013 1.47101e-014 0
lhumerus -45.0999 -38.3223 107.517
lradius 60.0883 -0 0
lwrist 20.2171 0 0
lhand 18.1604 16.3256 0.018082
lfingers 7.12502 -0 0
lthumb 42.8091 40.5673 -0.00439588
rclavicle 1.24253e-013 1.47101e-014 0
rhumerus -59.1562 2.50415 -97.6811
rradius 55.8561 -0 0
rwrist 21.709 0 0
rhand -29.9031 5.20038 0.0155668
rfingers 7.12502 -0 0
rthumb -3.2137 -24.9297 -0.054998
278
root 8.73063 15.8817 -24.8719 29.4884 75.6593 31.1887
lfemur -21.6425 6.38699 -23.0378
ltibia 47.1553 -0 0
lfoot -14.1588 -25.0505 -0.0224534
ltoes 43.9283 -0 0
rfemur -50.3115 -0.866077 14.7265
rtibia 66.4662 -0 0
rfoot 7.90236 -0.0449805 0.361411
rtoes 9.14644 -0 0
lowerback 6.89797 -5.49211 -3.58054
upperback 3.05669 -7.46792 -2.51825
thorax -0.555987 -3.69966 -0.0682426
lowerneck -4.216 -11.7364 -5.28397
upperneck 1.35626 -15.576 6.12236
head 2.13536 -7.70259 2.25261
lclavicle 1.24253e-013 1.47101e-014 0
lhumerus -44.8768 -38.5261 107.089
lradius 60.0088 -0 0
lwrist 20.2796 0 0
lhand 18.4566 16.3645 0.0103926
lfingers 7.12502 -0 0
lthumb 43.0894 40.5345 -0.00340477
rclavicle 1.24253e-013 1.47101e-014 0
rhumerus -59.4433 3.61407 -98.2998
rradius 56.2697 -0 0
rwrist 21.0757 0 0
rhand -29.7109 5.45669 0.0252022
rfingers 7.12502 -0 0
rthumb -3.03111 -24.6283 -0.0257038
279
root 8.79705 15.8757 -24.8431 30.4695 75.8909 32.4664
lfemur -21.1721 6.2105 -23.1633
ltibia 47.1848 -0 0
lfoot -14.179 -25.4903 -0.00989616
ltoes 44.134 -0 0
rfemur -51.2421 -1.22656 15.2825
rtibia 66.8333 -0 0
rfoot 8.47545 1.01191 0.165584
rtoes 7.93512 -0 0
lowerback 7.08081 -5.50451 -3.74071
upperback 3.17634 -7.49542 -2.67285
thorax -0.535416 -3.71556 -0.128408
lowerneck -4.11525 -11.8135 -5.322
upperneck 1.25712 -15.6849 6.30205
head 2.10633 -7.75539 2.31503
lclavicle 1.24253e-013 1.47101e-014 0
lhumerus -44.6765 -38.7216 106.699
lradius 59.937 -0 0
lwrist 20.3247 0 0
lhand 18.6974 16.3751 0.00425458
lfingers 7.12502 -0 0
lthumb 43.3173 40.4878 -0.00195084
rclavicle 1.24253e-013 1.47101e-014 0
rhumerus -59.6607 4.78125 -98.8138
rradius 56.674 -0 0
rwrist 20.4563 0 0
rhand -29.3932 5.66973 0.0204423
rfingers 7.12502 -0 0
rthumb -2.72767 -24.3612 -0.00693641
280
root 8.86347 15.8698 -24.8143 31.1991 76.0318 33.4453
lfemur -20.7818 6.12636 -23.2691
ltibia 47.2402 0 0
lfoot -14.2184 -25.8421 0
ltoes 44.3556 0 0
rfemur -52.0431 -1.59784 15.8411
rtibia 67.1191 0 0
rfoot 8.97713 1.95063 0
rtoes 6.77967 0 0
lowerback 7.24877 -5.50381 -3.89303
upperback 3.28442 -7.50534 -2.80526
thorax -0.51729 -3.72249 -0.172135
lowerneck -4.03309 -11.8794 -5.34512
upperneck 1.15013 -15.7777 6.4741
head 2.07508 -7.8003 2.37287
lclavicle 1.24253e-013 1.47101e-014 0
lhumerus -44.5014 -38.9079 106.349
lradius 59.8738 0 0
lwrist 20.3507 0 0
lhand 18.8782 16.3551 0
lfingers 7.12502 0 0
lthumb 43.4886 40.4261 0
rclavicle 1.24253e-013 1.47101e-014 0
rhumerus -59.8009 6.00786 -99.2147
rradius 57.0661 0 0
rwrist 19.8539 0 0
rhand -28.942 5.83736 0
rfingers 7.12502 0 0
rthumb -2.29569 -744.13 0
281
root 8.86426 15.8587 -24.7776 31.6549 76.0808 34.1142
lfemur -20.4533 6.13394 -23.3507
ltibia 47.3186 -0 0
lfoot -14.2968 -26.1412 0.000633902
ltoes 44.6434 -0 0
rfemur -52.746 -2.00741 16.428
rtibia 67.3324 -0 0
rfoot 9.41846 2.83519 -0.14252
rtoes 5.64673 -0 0
lowerback 7.41179 -5.48991 -4.04578
upperback 3.38606 -7.49814 -2.92381
thorax -0.501925 -3.72076 -0.203043
lowerneck -3.96922 -11.9328 -5.35029
upperneck 1.03093 -15.8526 6.64538
head 2.04067 -7.83632 2.42815
lclavicle -4.01545e-014 1.59028e-015 0
lhumerus -44.3477 -39.1017 106.026
lradius 59.8162 -0 0
lwrist 20.3609 0 0
lhand 19.0127 16.3062 -0.00261839
lfingers 7.12502 -0 0
lthumb 43.6162 40.3479 0.00253945
rclavicle -4.01545e-014 1.59028e-015 0
rhumerus -59.8583 7.36932 -99.4875
rradius 57.473 -0 0
rwrist 19.2321 0 0
rhand -28.3335 5.95533 -0.036128
rfingers 7.12502 -0 0
rthumb -1.71242 -23.9346 -0.00355131
282
root 8.86504 15.8477 -24.7409 31.8438 76.0407 34.4939
lfemur -20.1621 6.22504 -23.4051
ltibia 47.4145 -0 0
lfoot -14.4303 -26.4257 -0.0137507
ltoes 45.04 -0 0
rfemur -53.3918 -2.47838 17.0677
rtibia 67.4878 -0 0
rfoot 9.81368 3.7338 -0.273552
rtoes 4.50186 -0 0
lowerback 7.57987 -5.46361 -4.20703
upperback 3.48684 -7.4755 -3.03801
thorax -0.489304 -3.71136 -0.22595
lowerneck -3.92198 -11.9728 -5.33565
upperneck 0.896179 -15.9088 6.82272
head 2.00244 -7.86296 2.48305
lclavicle -4.01545e-014 1.59028e-015 0
lhumerus -44.2097 -39.3187 105.712
lradius 59.7605 -0 0
lwrist 20.3603 0 0
lhand 19.1183 16.233 -0.00403581
lfingers 7.12502 -0 0
lthumb 43.7166 40.2535 0.00573028
rclavicle -4.01545e-014 1.59028e-015 0
rhumerus -59.8327 8.92947 -99.6259
rradius 57.9218 -0 0
rwrist 18.5551 0 0
rhand -27.5569 6.02223 -0.08642
rfingers 7.12502 -0 0
rthumb -0.967786 -23.7734 -0.0154418
